<mxfile host="Electron" agent="Mozilla/5.0 (Windows NT 10.0; Win64; x64) AppleWebKit/537.36 (KHTML, like Gecko) draw.io/26.0.9 Chrome/128.0.6613.186 Electron/32.2.5 Safari/537.36" version="26.0.9">
  <diagram name="第 1 页" id="hHiwl0_tGxDZXTDWe0XI">
    <mxGraphModel dx="968" dy="806" grid="1" gridSize="10" guides="1" tooltips="1" connect="1" arrows="1" fold="1" page="1" pageScale="1" pageWidth="827" pageHeight="1169" math="0" shadow="0">
      <root>
        <mxCell id="0" />
        <mxCell id="1" parent="0" />
        <mxCell id="phfagW4klWc46ieCxH-k-2" value="" style="html=1;verticalAlign=bottom;startArrow=circle;startFill=1;endArrow=open;startSize=6;endSize=8;curved=0;rounded=0;entryX=0;entryY=0.5;entryDx=0;entryDy=0;" edge="1" parent="1" target="phfagW4klWc46ieCxH-k-3">
          <mxGeometry width="80" relative="1" as="geometry">
            <mxPoint x="109" y="270" as="sourcePoint" />
            <mxPoint x="160" y="300" as="targetPoint" />
          </mxGeometry>
        </mxCell>
        <mxCell id="phfagW4klWc46ieCxH-k-5" style="edgeStyle=orthogonalEdgeStyle;rounded=0;orthogonalLoop=1;jettySize=auto;html=1;exitX=0.5;exitY=1;exitDx=0;exitDy=0;entryX=0.5;entryY=0;entryDx=0;entryDy=0;" edge="1" parent="1" source="phfagW4klWc46ieCxH-k-3" target="phfagW4klWc46ieCxH-k-4">
          <mxGeometry relative="1" as="geometry" />
        </mxCell>
        <mxCell id="phfagW4klWc46ieCxH-k-6" style="edgeStyle=orthogonalEdgeStyle;rounded=0;orthogonalLoop=1;jettySize=auto;html=1;exitX=1;exitY=0.5;exitDx=0;exitDy=0;entryX=0;entryY=0.5;entryDx=0;entryDy=0;" edge="1" parent="1" source="phfagW4klWc46ieCxH-k-3" target="phfagW4klWc46ieCxH-k-9">
          <mxGeometry relative="1" as="geometry">
            <mxPoint x="340" y="270.33333333333337" as="targetPoint" />
          </mxGeometry>
        </mxCell>
        <mxCell id="phfagW4klWc46ieCxH-k-29" style="edgeStyle=orthogonalEdgeStyle;rounded=0;orthogonalLoop=1;jettySize=auto;html=1;exitX=0.5;exitY=0;exitDx=0;exitDy=0;entryX=0;entryY=0.5;entryDx=0;entryDy=0;" edge="1" parent="1" source="phfagW4klWc46ieCxH-k-3" target="phfagW4klWc46ieCxH-k-20">
          <mxGeometry relative="1" as="geometry" />
        </mxCell>
        <mxCell id="phfagW4klWc46ieCxH-k-3" value="用户是否登录" style="rhombus;whiteSpace=wrap;html=1;fillColor=#fff2cc;strokeColor=#d6b656;" vertex="1" parent="1">
          <mxGeometry x="170" y="240" width="120" height="60" as="geometry" />
        </mxCell>
        <mxCell id="phfagW4klWc46ieCxH-k-4" value="用户登录" style="rounded=1;whiteSpace=wrap;html=1;" vertex="1" parent="1">
          <mxGeometry x="185" y="340" width="90" height="50" as="geometry" />
        </mxCell>
        <mxCell id="phfagW4klWc46ieCxH-k-7" value="是" style="text;html=1;align=center;verticalAlign=middle;resizable=0;points=[];autosize=1;strokeColor=none;fillColor=none;" vertex="1" parent="1">
          <mxGeometry x="300" y="244" width="40" height="30" as="geometry" />
        </mxCell>
        <mxCell id="phfagW4klWc46ieCxH-k-8" value="否" style="text;html=1;align=center;verticalAlign=middle;resizable=0;points=[];autosize=1;strokeColor=none;fillColor=none;" vertex="1" parent="1">
          <mxGeometry x="220" y="298" width="40" height="30" as="geometry" />
        </mxCell>
        <mxCell id="phfagW4klWc46ieCxH-k-27" style="edgeStyle=orthogonalEdgeStyle;rounded=0;orthogonalLoop=1;jettySize=auto;html=1;exitX=1;exitY=0.5;exitDx=0;exitDy=0;entryX=0;entryY=0.5;entryDx=0;entryDy=0;" edge="1" parent="1" source="phfagW4klWc46ieCxH-k-9" target="phfagW4klWc46ieCxH-k-11">
          <mxGeometry relative="1" as="geometry" />
        </mxCell>
        <mxCell id="phfagW4klWc46ieCxH-k-9" value="&lt;font style=&quot;font-size: 13px;&quot;&gt;打开&lt;span style=&quot;color: rgb(51, 51, 51); font-family: &amp;quot;Open Sans&amp;quot;, &amp;quot;Clear Sans&amp;quot;, &amp;quot;Helvetica Neue&amp;quot;, Helvetica, Arial, &amp;quot;Segoe UI Emoji&amp;quot;, sans-serif; orphans: 4; text-align: start; white-space-collapse: preserve; background-color: rgb(255, 255, 255);&quot;&gt;历史记录&lt;/span&gt;&lt;/font&gt;&lt;div&gt;&lt;font style=&quot;font-size: 13px;&quot;&gt;&lt;span style=&quot;color: rgb(51, 51, 51); font-family: &amp;quot;Open Sans&amp;quot;, &amp;quot;Clear Sans&amp;quot;, &amp;quot;Helvetica Neue&amp;quot;, Helvetica, Arial, &amp;quot;Segoe UI Emoji&amp;quot;, sans-serif; orphans: 4; text-align: start; white-space-collapse: preserve; background-color: rgb(255, 255, 255);&quot;&gt;管理页面&lt;/span&gt;&lt;/font&gt;&lt;/div&gt;" style="rounded=1;whiteSpace=wrap;html=1;" vertex="1" parent="1">
          <mxGeometry x="360" y="240" width="120" height="60" as="geometry" />
        </mxCell>
        <mxCell id="phfagW4klWc46ieCxH-k-12" style="edgeStyle=orthogonalEdgeStyle;rounded=0;orthogonalLoop=1;jettySize=auto;html=1;exitX=0.5;exitY=1;exitDx=0;exitDy=0;entryX=0.5;entryY=0;entryDx=0;entryDy=0;" edge="1" parent="1" source="phfagW4klWc46ieCxH-k-11" target="phfagW4klWc46ieCxH-k-14">
          <mxGeometry relative="1" as="geometry">
            <mxPoint x="580" y="380" as="targetPoint" />
          </mxGeometry>
        </mxCell>
        <mxCell id="phfagW4klWc46ieCxH-k-13" style="edgeStyle=orthogonalEdgeStyle;rounded=0;orthogonalLoop=1;jettySize=auto;html=1;exitX=1;exitY=0.5;exitDx=0;exitDy=0;endArrow=none;startFill=0;" edge="1" parent="1" source="phfagW4klWc46ieCxH-k-11">
          <mxGeometry relative="1" as="geometry">
            <mxPoint x="700" y="270.33333333333337" as="targetPoint" />
          </mxGeometry>
        </mxCell>
        <mxCell id="phfagW4klWc46ieCxH-k-11" value="检测是否完成" style="rhombus;whiteSpace=wrap;html=1;fillColor=#fff2cc;strokeColor=#d6b656;" vertex="1" parent="1">
          <mxGeometry x="530" y="240" width="130" height="60" as="geometry" />
        </mxCell>
        <mxCell id="phfagW4klWc46ieCxH-k-14" value="查看检测进度" style="rounded=1;whiteSpace=wrap;html=1;" vertex="1" parent="1">
          <mxGeometry x="547.5" y="340" width="95" height="50" as="geometry" />
        </mxCell>
        <mxCell id="phfagW4klWc46ieCxH-k-15" value="否" style="text;html=1;align=center;verticalAlign=middle;resizable=0;points=[];autosize=1;strokeColor=none;fillColor=none;" vertex="1" parent="1">
          <mxGeometry x="587" y="302" width="40" height="30" as="geometry" />
        </mxCell>
        <mxCell id="phfagW4klWc46ieCxH-k-16" value="是" style="text;html=1;align=center;verticalAlign=middle;resizable=0;points=[];autosize=1;strokeColor=none;fillColor=none;" vertex="1" parent="1">
          <mxGeometry x="658" y="244" width="40" height="30" as="geometry" />
        </mxCell>
        <mxCell id="phfagW4klWc46ieCxH-k-17" value="检测结果分类检索" style="rounded=1;whiteSpace=wrap;html=1;fillColor=#f5f5f5;strokeColor=#666666;fontColor=#333333;" vertex="1" parent="1">
          <mxGeometry x="750" y="187" width="110" height="50" as="geometry" />
        </mxCell>
        <mxCell id="phfagW4klWc46ieCxH-k-18" value="检测结果可视化" style="rounded=1;whiteSpace=wrap;html=1;fillColor=#f5f5f5;strokeColor=#666666;fontColor=#333333;" vertex="1" parent="1">
          <mxGeometry x="750" y="245" width="110" height="50" as="geometry" />
        </mxCell>
        <mxCell id="phfagW4klWc46ieCxH-k-19" value="导出检测报告" style="rounded=1;whiteSpace=wrap;html=1;fillColor=#f5f5f5;strokeColor=#666666;fontColor=#333333;" vertex="1" parent="1">
          <mxGeometry x="750" y="303" width="110" height="50" as="geometry" />
        </mxCell>
        <mxCell id="phfagW4klWc46ieCxH-k-22" style="edgeStyle=orthogonalEdgeStyle;rounded=0;orthogonalLoop=1;jettySize=auto;html=1;exitX=1;exitY=0.5;exitDx=0;exitDy=0;entryX=0;entryY=0.5;entryDx=0;entryDy=0;" edge="1" parent="1" source="phfagW4klWc46ieCxH-k-20" target="phfagW4klWc46ieCxH-k-21">
          <mxGeometry relative="1" as="geometry" />
        </mxCell>
        <mxCell id="phfagW4klWc46ieCxH-k-24" style="edgeStyle=orthogonalEdgeStyle;rounded=0;orthogonalLoop=1;jettySize=auto;html=1;exitX=0.5;exitY=0;exitDx=0;exitDy=0;entryX=0.5;entryY=1;entryDx=0;entryDy=0;" edge="1" parent="1" source="phfagW4klWc46ieCxH-k-20" target="phfagW4klWc46ieCxH-k-26">
          <mxGeometry relative="1" as="geometry">
            <mxPoint x="400" y="80" as="targetPoint" />
          </mxGeometry>
        </mxCell>
        <mxCell id="phfagW4klWc46ieCxH-k-20" value="是否触发通知条件" style="rhombus;whiteSpace=wrap;html=1;fillColor=#fff2cc;strokeColor=#d6b656;" vertex="1" parent="1">
          <mxGeometry x="344" y="126" width="140" height="70" as="geometry" />
        </mxCell>
        <mxCell id="phfagW4klWc46ieCxH-k-21" value="推送邮件/站内信" style="rounded=1;whiteSpace=wrap;html=1;" vertex="1" parent="1">
          <mxGeometry x="596" y="131" width="120" height="60" as="geometry" />
        </mxCell>
        <mxCell id="phfagW4klWc46ieCxH-k-23" value="高风险/进度变更" style="text;html=1;align=center;verticalAlign=middle;resizable=0;points=[];autosize=1;strokeColor=none;fillColor=none;" vertex="1" parent="1">
          <mxGeometry x="477" y="126" width="110" height="30" as="geometry" />
        </mxCell>
        <mxCell id="phfagW4klWc46ieCxH-k-25" value="低风险" style="text;html=1;align=center;verticalAlign=middle;resizable=0;points=[];autosize=1;strokeColor=none;fillColor=none;" vertex="1" parent="1">
          <mxGeometry x="410" y="90" width="60" height="30" as="geometry" />
        </mxCell>
        <mxCell id="phfagW4klWc46ieCxH-k-26" value="仅更新任务中心" style="rounded=1;whiteSpace=wrap;html=1;" vertex="1" parent="1">
          <mxGeometry x="361" y="30" width="106" height="49" as="geometry" />
        </mxCell>
        <mxCell id="phfagW4klWc46ieCxH-k-30" value="" style="endArrow=classic;html=1;rounded=0;entryX=0;entryY=0.5;entryDx=0;entryDy=0;" edge="1" parent="1" target="phfagW4klWc46ieCxH-k-19">
          <mxGeometry width="50" height="50" relative="1" as="geometry">
            <mxPoint x="700" y="270" as="sourcePoint" />
            <mxPoint x="540" y="410" as="targetPoint" />
          </mxGeometry>
        </mxCell>
        <mxCell id="phfagW4klWc46ieCxH-k-31" value="" style="endArrow=classic;html=1;rounded=0;entryX=0;entryY=0.5;entryDx=0;entryDy=0;" edge="1" parent="1" target="phfagW4klWc46ieCxH-k-18">
          <mxGeometry width="50" height="50" relative="1" as="geometry">
            <mxPoint x="700" y="270" as="sourcePoint" />
            <mxPoint x="550" y="420" as="targetPoint" />
          </mxGeometry>
        </mxCell>
        <mxCell id="phfagW4klWc46ieCxH-k-32" value="" style="endArrow=classic;html=1;rounded=0;entryX=0;entryY=0.5;entryDx=0;entryDy=0;" edge="1" parent="1" target="phfagW4klWc46ieCxH-k-17">
          <mxGeometry width="50" height="50" relative="1" as="geometry">
            <mxPoint x="700" y="270" as="sourcePoint" />
            <mxPoint x="560" y="430" as="targetPoint" />
          </mxGeometry>
        </mxCell>
      </root>
    </mxGraphModel>
  </diagram>
</mxfile>
